<?xml version="1.0" encoding="UTF-8" standalone="no"?>
<svg
   version="1.2"
   width="512px"
   height="512px"
   viewBox="0 0 512 512"
   preserveAspectRatio="xMidYMid meet"
   id="svg3"
   sodipodi:docname="FreeSample-Vectorizer-io-mikrotik.svg"
   inkscape:version="1.3.2 (091e20e, 2023-11-25)"
   xmlns:inkscape="http://www.inkscape.org/namespaces/inkscape"
   xmlns:sodipodi="http://sodipodi.sourceforge.net/DTD/sodipodi-0.dtd"
   xmlns="http://www.w3.org/2000/svg"
   xmlns:svg="http://www.w3.org/2000/svg">
  <defs
     id="defs3" />
  <sodipodi:namedview
     id="namedview3"
     pagecolor="#ffffff"
     bordercolor="#000000"
     borderopacity="0.25"
     inkscape:showpageshadow="2"
     inkscape:pageopacity="0.0"
     inkscape:pagecheckerboard="0"
     inkscape:deskcolor="#d1d1d1"
     inkscape:zoom="0.4609375"
     inkscape:cx="256"
     inkscape:cy="254.91525"
     inkscape:window-width="1464"
     inkscape:window-height="916"
     inkscape:window-x="49"
     inkscape:window-y="38"
     inkscape:window-maximized="1"
     inkscape:current-layer="svg3" />
  <path
     d="m 247.2,504.5 c -3.4,-0.8 -10.4,-3.4 -15.5,-5.8 -12.5,-5.9 -175.2,-95.6 -185,-101.9 -11,-7.2 -17.9,-15 -20.9,-23.5 l -2.3,-6.8 v -111 -111 l 2.3,-6.8 c 2.6,-7.4 8.7,-15 17.1,-21.1 5.7,-4.2 173.2,-96.8 187.8,-103.8 5.9,-2.8 13.4,-5.6 17.8,-6.4 6.7,-1.4 8.3,-1.4 15,0 4.4,0.8 11.9,3.6 17.8,6.4 14.6,7 182.1,99.6 187.8,103.8 8.4,6.1 14.5,13.7 17.1,21.1 l 2.3,6.8 v 111 111 l -2.3,6.8 c -3,8.5 -9.9,16.3 -20.9,23.5 -9.7,6.3 -172.5,96 -185,101.9 -8.5,4 -19.9,7.4 -24.8,7.2 -1.1,0 -4.8,-0.7 -8.3,-1.4 z m 21,-100 c 4.6,-2.7 7.2,-4.9 8.3,-7.1 1.3,-2.8 1.5,-11.9 1.5,-65.6 0,-58.5 0.2,-62.5 1.9,-66.3 1,-2.2 3.1,-5.2 4.7,-6.7 1.6,-1.4 16.1,-9.9 32.3,-18.8 28.2,-15.6 29.5,-16.2 33.9,-15.7 2.8,0.3 5.1,1.2 5.9,2.3 1,1.4 1.3,14 1.3,62.5 0,33.4 0.3,61.4 0.6,62.3 0.3,0.9 1.2,1.6 1.9,1.6 1.8,0 31.6,-16.7 34.3,-19.3 1.3,-1.2 3.4,-4 4.5,-6.2 2.2,-4 2.2,-4.3 2.2,-72 0,-67.7 0,-68 -2.2,-72 -1.1,-2.2 -3.2,-5 -4.5,-6.2 -1.9,-1.8 -115.8,-65.2 -130.8,-72.8 -7.9,-4 -9.5,-3.6 -30,7.6 -10.2,5.5 -18.9,10.4 -19.4,10.9 -1.1,1.1 -2.5,0.3 53.4,31.1 42.9,23.7 46.6,25.9 47.4,28.8 0.6,2 0.6,4.7 0,6.9 -0.8,3.5 -1.8,4.2 -14.9,11.5 -7.7,4.4 -19.1,10.6 -25.2,13.8 -11,5.7 -11.5,5.9 -19,5.9 -9.7,0 -7.1,1.3 -65.3,-30.9 -35.6,-19.7 -46.3,-25.1 -49.1,-25.1 -3.8,0 -17.6,6.7 -23.5,11.4 -3.9,3.1 -7.3,9.1 -7.6,13.7 l -0.3,3.2 56,30.8 c 30.8,17 57.2,31.8 58.8,32.9 1.5,1.2 4,3.9 5.5,6.2 l 2.7,4.2 0.5,64.8 0.5,64.8 3,2.9 c 1.7,1.6 5.7,4.3 9,6 7.9,4.2 12.5,3.9 21.7,-1.4 z M 153.5,350.8 c 0.3,-1.3 0.4,-23.6 0.3,-49.5 L 153.5,254 151,251.6 c -2.8,-2.8 -36.5,-21.6 -38.6,-21.6 -0.8,0 -1.6,1 -1.9,2.3 -0.3,1.2 -0.5,22.2 -0.3,46.7 0.4,56.2 -1.6,50.9 24.9,65.5 8.5,4.7 16,8.5 16.6,8.5 0.7,0 1.5,-1 1.8,-2.2 z"
     id="path1"
     style="fill:#293239" />
  <path
     d="m 250,411.7 c -5.7,-1.9 -13.3,-6.3 -16,-9.2 l -2.5,-2.7 -0.5,-64.7 -0.5,-64.7 -2.7,-4.2 c -1.5,-2.3 -4,-5 -5.5,-6.2 -1.6,-1.1 -28,-15.9 -58.8,-32.9 l -56,-30.8 0.1,-5.9 c 0.1,-6.4 2.5,-12.3 6.6,-16.1 3.5,-3.2 18.1,-11.1 23,-12.3 2.9,-0.8 5.7,-0.8 8.5,-0.2 2.4,0.6 25.5,12.7 51.6,27.1 26,14.3 49,26.7 51,27.6 4.9,2 11.3,1.9 16.4,-0.5 2.3,-1 13.7,-7.1 25.3,-13.5 21.4,-11.8 23.6,-13.7 22,-17.9 -0.4,-1.2 -19.1,-12.1 -50,-29.1 -27.2,-15 -50.1,-28.2 -50.9,-29.4 -2.6,-4 -0.3,-6.1 18.7,-16.4 10,-5.5 19.8,-10.3 21.9,-10.8 4.8,-1.1 9.5,-0.3 15.6,2.8 13.6,6.8 128.5,70.7 130.5,72.6 1.3,1.2 3.4,4 4.5,6.2 2.2,4 2.2,4.2 2.2,75 0,70.8 0,71 -2.2,75 -1.1,2.2 -3.2,5 -4.5,6.2 -3.7,3.5 -34.6,20.3 -37.2,20.3 -5.8,0 -5.6,2.3 -5.6,-64 0,-33.5 -0.3,-61.6 -0.6,-62.5 -0.4,-0.9 -1.8,-2.1 -3.1,-2.6 -2.1,-0.8 -6.5,1.3 -31.6,15.2 -16.1,8.8 -30.5,17.3 -32.1,18.7 -1.6,1.5 -3.7,4.5 -4.7,6.7 -1.7,3.8 -1.9,7.8 -1.9,66.3 0,53.7 -0.2,62.8 -1.5,65.6 -2.4,5 -17.2,12.8 -24,12.5 -1.1,0 -3.6,-0.6 -5.5,-1.2 z"
     id="path2"
     style="fill:#ffffff" />
  <path
     d="m 132.5,347.9 c -17.5,-9.8 -19.7,-11.5 -22.8,-17.4 -2.2,-3.9 -2.2,-5 -2.5,-52.6 -0.3,-53.1 -0.4,-51.9 5.3,-51.9 2.9,0 38,19.1 41.5,22.6 l 2.5,2.4 0.3,51.4 c 0.3,56.4 0.5,54.7 -5.6,54.5 -1.5,-0.1 -9.9,-4.1 -18.7,-9 z"
     id="path3"
     style="fill:#ffffff" />
</svg>
