<?xml version="1.0" encoding="UTF-8" standalone="no"?>
<svg
   id="logo"
   role="img"
   aria-labelledby="pfsense-logo"
   x="0px"
   y="0px"
   viewBox="0 0 77.500003 77.500003"
   version="1.1"
   sodipodi:docname="pfsense.svg"
   width="77.5"
   height="77.5"
   xmlns:sodipodi="http://sodipodi.sourceforge.net/DTD/sodipodi-0.dtd"
   xmlns="http://www.w3.org/2000/svg"
   xmlns:svg="http://www.w3.org/2000/svg"
   xmlns:rdf="http://www.w3.org/1999/02/22-rdf-syntax-ns#"
   xmlns:cc="http://creativecommons.org/ns#"
   xmlns:dc="http://purl.org/dc/elements/1.1/">
  <defs
     id="defs26" />
  <sodipodi:namedview
     id="namedview24"
     pagecolor="#ffffff"
     bordercolor="#000000"
     borderopacity="0.25"
     inkscape:showpageshadow="2"
     inkscape:pageopacity="0.0"
     inkscape:pagecheckerboard="0"
     inkscape:deskcolor="#d1d1d1"
     showgrid="false"
     inkscape:zoom="2.8028505"
     inkscape:cx="67.788133"
     inkscape:cy="49.057202"
     inkscape:window-width="1387"
     inkscape:window-height="847"
     inkscape:window-x="53"
     inkscape:window-y="25"
     inkscape:window-maximized="0"
     inkscape:current-layer="logo" />
  <style
     type="text/css"
     id="style2">
.logo-st0 {
fill:#2B40B5;
}

.logo-st1 {
fill:#1475CF;
}

.logo-st2 {
fill:#1C1275;
}
</style>
  <title
     id="pfsense-logo-svg">pfSense Logo</title>
  <path
     class="logo-st0"
     d="m 22.4,54.7 c 2.9,0 5.4,-0.9 7.5,-2.6 2.1,-1.7 3.6,-4 4.4,-6.8 0.8,-2.8 0.6,-5.1 -0.5,-6.8 -1.1,-1.7 -3.2,-2.6 -6.1,-2.6 -2.9,0 -5.4,0.9 -7.5,2.6 -2.1,1.7 -3.5,4 -4.3,6.8 -0.8,2.8 -0.7,5.1 0.5,6.8 1,1.8 3,2.6 6,2.6"
     id="path5" />
  <path
     class="logo-st1"
     d="m 47.2,35.9 2.6,-9.2 h 4.6 l 1.8,-6.6 c 0.6,-2 1.3,-4 2.2,-5.8 0.8,-1.8 2,-3.4 3.4,-4.8 C 63.2,8.1 65,7 67.1,6.2 69.2,5.4 71.9,5 75,5 75.8,5 76.5,5 77.3,5.1 76.6,2.2 74,0.1 71,0 H 6.5 C 2.9,0 0,3 0,6.6 V 64 L 10.5,26.7 h 10.6 l -1.4,4.9 h 0.2 c 0.6,-0.7 1.4,-1.3 2.4,-2 1,-0.7 2,-1.3 3.1,-1.9 1.1,-0.6 2.3,-1 3.6,-1.4 1.3,-0.4 2.6,-0.5 3.9,-0.5 2.8,0 5.1,0.5 7.1,1.4 2,0.9 3.5,2.3 4.7,4 1,1.5 1.6,3.3 1.9,5.4 L 47.4,36 h -0.2 z"
     id="path17" />
  <path
     class="logo-st2"
     d="m 76.7,14.9 c -0.5,-0.1 -1.1,-0.2 -1.8,-0.2 -1.8,0 -3.3,0.4 -4.5,1.2 -1.1,0.8 -2.1,2.4 -2.8,4.9 l -1.7,5.9 h 6.5 l 1.6,5.1 -4.2,4.1 h -6.5 l -7.9,28 H 44 l 7.9,-28 h -4.4 l -0.9,0.6 c 0,0.2 0.1,0.5 0.1,0.7 0.2,2.3 -0.1,4.9 -0.9,7.7 -0.7,2.6 -1.8,5.1 -3.3,7.5 -1.5,2.4 -3.2,4.5 -5.1,6.3 -2,1.8 -4.2,3.3 -6.6,4.4 -2.4,1.1 -4.9,1.6 -7.6,1.6 -2.4,0 -4.5,-0.4 -6.4,-1.1 -1.9,-0.7 -3.2,-2 -4,-3.8 h -0.2 l -5,17.7 h 63.3 c 3.6,0 6.6,-2.9 6.6,-6.6 V 15.2 C 77.2,15.1 76.9,15 76.7,14.9"
     id="path19" />
  <metadata
     id="metadata28">
    <rdf:RDF>
      <cc:Work
         rdf:about="">
        <dc:title>pfSense Logo</dc:title>
      </cc:Work>
    </rdf:RDF>
  </metadata>
</svg>
