<?xml version="1.0" encoding="UTF-8" standalone="no"?>
<svg xmlns="http://www.w3.org/2000/svg" version="1.2" baseProfile="tiny" viewBox="0.00 0.00 128.00 128.00">
<g stroke-width="2.00" fill="none" stroke-linecap="butt">
<path stroke="#8fa6b1" vector-effect="non-scaling-stroke" d="
  M 128.00 16.84
  L 109.29 16.70
  A 1.37 1.36 0.0 0 0 107.91 18.07
  L 107.95 23.77
  Q 107.96 25.16 109.34 25.16
  L 128.00 25.13"
/>
<path stroke="#8fa6b1" vector-effect="non-scaling-stroke" d="
  M 128.00 103.96
  L 0.00 103.96"
/>
<path stroke="#8fa6b1" vector-effect="non-scaling-stroke" d="
  M 0.00 25.08
  L 18.72 25.07
  Q 20.05 25.07 20.05 23.74
  L 20.05 18.06
  A 1.29 1.28 89.8 0 0 18.76 16.77
  L 0.00 16.84"
/>
<path stroke="#8fa6b1" vector-effect="non-scaling-stroke" d="
  M 53.03 27.04
  A 0.98 0.98 0.0 0 1 54.01 28.02
  L 54.00 99.99
  A 0.98 0.98 0.0 0 0 54.98 100.97
  L 73.03 101.01
  A 0.98 0.98 0.0 0 0 74.01 100.03
  L 74.00 27.99
  A 0.98 0.98 0.0 0 1 74.98 27.01
  L 105.08 26.97
  A 0.98 0.98 0.0 0 0 106.05 25.99
  L 106.00 14.98
  A 0.98 0.98 0.0 0 0 105.01 14.00
  L 22.97 14.03
  A 0.98 0.98 0.0 0 0 21.99 15.01
  L 21.96 25.93
  A 0.98 0.98 0.0 0 0 22.94 26.91
  L 53.03 27.04"
/>
<path stroke="#8fa6b1" vector-effect="non-scaling-stroke" d="
  M 128.00 112.03
  L 0.00 112.02"
/>
</g>
<path fill="#1e4c63" d="
  M 0.00 0.00
  L 128.00 0.00
  L 128.00 16.84
  L 109.29 16.70
  A 1.37 1.36 0.0 0 0 107.91 18.07
  L 107.95 23.77
  Q 107.96 25.16 109.34 25.16
  L 128.00 25.13
  L 128.00 103.96
  L 0.00 103.96
  L 0.00 25.08
  L 18.72 25.07
  Q 20.05 25.07 20.05 23.74
  L 20.05 18.06
  A 1.29 1.28 89.8 0 0 18.76 16.77
  L 0.00 16.84
  L 0.00 0.00
  Z
  M 53.03 27.04
  A 0.98 0.98 0.0 0 1 54.01 28.02
  L 54.00 99.99
  A 0.98 0.98 0.0 0 0 54.98 100.97
  L 73.03 101.01
  A 0.98 0.98 0.0 0 0 74.01 100.03
  L 74.00 27.99
  A 0.98 0.98 0.0 0 1 74.98 27.01
  L 105.08 26.97
  A 0.98 0.98 0.0 0 0 106.05 25.99
  L 106.00 14.98
  A 0.98 0.98 0.0 0 0 105.01 14.00
  L 22.97 14.03
  A 0.98 0.98 0.0 0 0 21.99 15.01
  L 21.96 25.93
  A 0.98 0.98 0.0 0 0 22.94 26.91
  L 53.03 27.04
  Z"
/>
<path fill="#ffffff" d="
  M 53.03 27.04
  L 22.94 26.91
  A 0.98 0.98 0.0 0 1 21.96 25.93
  L 21.99 15.01
  A 0.98 0.98 0.0 0 1 22.97 14.03
  L 105.01 14.00
  A 0.98 0.98 0.0 0 1 106.00 14.98
  L 106.05 25.99
  A 0.98 0.98 0.0 0 1 105.08 26.97
  L 74.98 27.01
  A 0.98 0.98 0.0 0 0 74.00 27.99
  L 74.01 100.03
  A 0.98 0.98 0.0 0 1 73.03 101.01
  L 54.98 100.97
  A 0.98 0.98 0.0 0 1 54.00 99.99
  L 54.01 28.02
  A 0.98 0.98 0.0 0 0 53.03 27.04
  Z"
/>
<path fill="#ffffff" d="
  M 0.00 16.84
  L 18.76 16.77
  A 1.29 1.28 89.8 0 1 20.05 18.06
  L 20.05 23.74
  Q 20.05 25.07 18.72 25.07
  L 0.00 25.08
  L 0.00 16.84
  Z"
/>
<path fill="#ffffff" d="
  M 128.00 16.84
  L 128.00 25.13
  L 109.34 25.16
  Q 107.96 25.16 107.95 23.77
  L 107.91 18.07
  A 1.37 1.36 0.0 0 1 109.29 16.70
  L 128.00 16.84
  Z"
/>
<path fill="#ffffff" d="
  M 0.00 103.96
  L 128.00 103.96
  L 128.00 112.03
  L 0.00 112.02
  L 0.00 103.96
  Z"
/>
<path fill="#1e4c63" d="
  M 128.00 112.03
  L 128.00 128.00
  L 0.00 128.00
  L 0.00 112.02
  L 128.00 112.03
  Z"
/>
</svg>
